<svg xmlns="http://www.w3.org/2000/svg" xmlns:xlink="http://www.w3.org/1999/xlink" width="1200" zoomAndPan="magnify" viewBox="0 0 900 472.499986" height="630" preserveAspectRatio="xMidYMid meet" version="1.0"><defs><g/><clipPath id="36df557865"><path d="M 0.476562 0 L 899.523438 0 L 899.523438 472 L 0.476562 472 Z M 0.476562 0 " clip-rule="nonzero"/></clipPath><clipPath id="7d9c285f1b"><rect x="0" width="585" y="0" height="124"/></clipPath><clipPath id="418f0a3c5d"><path d="M 0.476562 155 L 333 155 L 333 472 L 0.476562 472 Z M 0.476562 155 " clip-rule="nonzero"/></clipPath><clipPath id="4e3f1b5586"><path d="M 0.476562 0.59375 L 332.765625 0.59375 L 332.765625 317 L 0.476562 317 Z M 0.476562 0.59375 " clip-rule="nonzero"/></clipPath><clipPath id="869f7d77b7"><rect x="0" width="333" y="0" height="317"/></clipPath><clipPath id="fc59e04231"><path d="M 578 0 L 899.523438 0 L 899.523438 286 L 578 286 Z M 578 0 " clip-rule="nonzero"/></clipPath><clipPath id="6ece4e9c99"><path d="M 0.265625 0 L 321.523438 0 L 321.523438 285.058594 L 0.265625 285.058594 Z M 0.265625 0 " clip-rule="nonzero"/></clipPath><clipPath id="04f38cbe75"><rect x="0" width="322" y="0" height="286"/></clipPath></defs><g clip-path="url(#36df557865)"><path fill="#ffffff" d="M 0.476562 0 L 899.523438 0 L 899.523438 472 L 0.476562 472 Z M 0.476562 0 " fill-opacity="1" fill-rule="nonzero"/><path fill="#ffffff" d="M 0.476562 0 L 899.523438 0 L 899.523438 472 L 0.476562 472 Z M 0.476562 0 " fill-opacity="1" fill-rule="nonzero"/></g><g transform="matrix(1, 0, 0, 1, 158, 150)"><g clip-path="url(#7d9c285f1b)"><g fill="#000000" fill-opacity="1"><g transform="translate(1.200623, 97.933006)"><g><path d="M 21.015625 0 L 6.734375 0 L 6.734375 -75.609375 L 39.34375 -75.609375 C 44.09375 -75.609375 48.269531 -74.832031 51.875 -73.28125 C 55.476562 -71.726562 58.285156 -69.316406 60.296875 -66.046875 C 62.316406 -62.773438 63.328125 -58.53125 63.328125 -53.3125 C 63.328125 -48.488281 62.316406 -44.34375 60.296875 -40.875 C 58.285156 -37.40625 55.476562 -34.757812 51.875 -32.9375 C 48.269531 -31.125 44.09375 -30.21875 39.34375 -30.21875 L 21.015625 -30.21875 Z M 21.015625 -62.828125 L 21.015625 -42.703125 L 37.359375 -42.703125 C 41.191406 -42.703125 44.113281 -43.5625 46.125 -45.28125 C 48.144531 -47 49.15625 -49.507812 49.15625 -52.8125 C 49.15625 -56.050781 48.128906 -58.53125 46.078125 -60.25 C 44.023438 -61.96875 41.117188 -62.828125 37.359375 -62.828125 Z M 21.015625 -62.828125 "/></g></g></g><g fill="#000000" fill-opacity="1"><g transform="translate(67.192214, 97.933006)"><g><path d="M 40.53125 1.390625 C 34.320312 1.390625 28.90625 0.332031 24.28125 -1.78125 C 19.65625 -3.894531 15.835938 -6.769531 12.828125 -10.40625 C 9.828125 -14.039062 7.582031 -18.21875 6.09375 -22.9375 C 4.601562 -27.664062 3.859375 -32.640625 3.859375 -37.859375 C 3.859375 -43.078125 4.601562 -48.046875 6.09375 -52.765625 C 7.582031 -57.492188 9.828125 -61.671875 12.828125 -65.296875 C 15.835938 -68.929688 19.65625 -71.789062 24.28125 -73.875 C 28.90625 -75.957031 34.320312 -77 40.53125 -77 C 46.800781 -77 52.25 -75.957031 56.875 -73.875 C 61.5 -71.789062 65.3125 -68.929688 68.3125 -65.296875 C 71.320312 -61.671875 73.570312 -57.492188 75.0625 -52.765625 C 76.550781 -48.046875 77.296875 -43.078125 77.296875 -37.859375 C 77.296875 -32.640625 76.550781 -27.664062 75.0625 -22.9375 C 73.570312 -18.21875 71.320312 -14.039062 68.3125 -10.40625 C 65.3125 -6.769531 61.5 -3.894531 56.875 -1.78125 C 52.25 0.332031 46.800781 1.390625 40.53125 1.390625 Z M 40.53125 -11.390625 C 45.21875 -11.390625 49.179688 -12.492188 52.421875 -14.703125 C 55.660156 -16.921875 58.132812 -20.03125 59.84375 -24.03125 C 61.5625 -28.03125 62.421875 -32.640625 62.421875 -37.859375 C 62.421875 -43.078125 61.5625 -47.648438 59.84375 -51.578125 C 58.132812 -55.503906 55.660156 -58.570312 52.421875 -60.78125 C 49.179688 -63 45.21875 -64.109375 40.53125 -64.109375 C 35.96875 -64.109375 32.050781 -63 28.78125 -60.78125 C 25.507812 -58.570312 23.015625 -55.503906 21.296875 -51.578125 C 19.585938 -47.648438 18.734375 -43.078125 18.734375 -37.859375 C 18.734375 -32.640625 19.585938 -28.03125 21.296875 -24.03125 C 23.015625 -20.03125 25.507812 -16.921875 28.78125 -14.703125 C 32.050781 -12.492188 35.96875 -11.390625 40.53125 -11.390625 Z M 40.53125 -11.390625 "/></g></g></g><g fill="#000000" fill-opacity="1"><g transform="translate(148.443146, 97.933006)"><g><path d="M 51.421875 -32.796875 L 65 0 L 49.84375 0 L 37.859375 -30.21875 L 21.015625 -30.21875 L 21.015625 0 L 6.734375 0 L 6.734375 -75.609375 L 39.34375 -75.609375 C 44.09375 -75.609375 48.269531 -74.832031 51.875 -73.28125 C 55.476562 -71.726562 58.285156 -69.316406 60.296875 -66.046875 C 62.316406 -62.773438 63.328125 -58.53125 63.328125 -53.3125 C 63.328125 -48.351562 62.269531 -44.125 60.15625 -40.625 C 58.039062 -37.125 55.128906 -34.515625 51.421875 -32.796875 Z M 37.359375 -62.828125 L 21.015625 -62.828125 L 21.015625 -42.703125 L 37.359375 -42.703125 C 41.191406 -42.703125 44.113281 -43.5625 46.125 -45.28125 C 48.144531 -47 49.15625 -49.507812 49.15625 -52.8125 C 49.15625 -56.050781 48.128906 -58.53125 46.078125 -60.25 C 44.023438 -61.96875 41.117188 -62.828125 37.359375 -62.828125 Z M 37.359375 -62.828125 "/></g></g></g><g fill="#000000" fill-opacity="1"><g transform="translate(216.515523, 97.933006)"><g><path d="M 38.34375 0 L 24.078125 0 L 24.078125 -62.828125 L 0.984375 -62.828125 L 0.984375 -75.609375 L 61.34375 -75.609375 L 61.34375 -62.828125 L 38.34375 -62.828125 Z M 38.34375 0 "/></g></g></g><g fill="#000000" fill-opacity="1"><g transform="translate(278.940021, 97.933006)"><g><path d="M 21.015625 0 L 6.734375 0 L 6.734375 -75.609375 L 57.171875 -75.609375 L 57.171875 -62.828125 L 21.015625 -62.828125 L 21.015625 -44.203125 L 53.40625 -44.203125 L 53.40625 -31.515625 L 21.015625 -31.515625 Z M 21.015625 0 "/></g></g></g><g fill="#000000" fill-opacity="1"><g transform="translate(338.391869, 97.933006)"><g><path d="M 40.53125 1.390625 C 34.320312 1.390625 28.90625 0.332031 24.28125 -1.78125 C 19.65625 -3.894531 15.835938 -6.769531 12.828125 -10.40625 C 9.828125 -14.039062 7.582031 -18.21875 6.09375 -22.9375 C 4.601562 -27.664062 3.859375 -32.640625 3.859375 -37.859375 C 3.859375 -43.078125 4.601562 -48.046875 6.09375 -52.765625 C 7.582031 -57.492188 9.828125 -61.671875 12.828125 -65.296875 C 15.835938 -68.929688 19.65625 -71.789062 24.28125 -73.875 C 28.90625 -75.957031 34.320312 -77 40.53125 -77 C 46.800781 -77 52.25 -75.957031 56.875 -73.875 C 61.5 -71.789062 65.3125 -68.929688 68.3125 -65.296875 C 71.320312 -61.671875 73.570312 -57.492188 75.0625 -52.765625 C 76.550781 -48.046875 77.296875 -43.078125 77.296875 -37.859375 C 77.296875 -32.640625 76.550781 -27.664062 75.0625 -22.9375 C 73.570312 -18.21875 71.320312 -14.039062 68.3125 -10.40625 C 65.3125 -6.769531 61.5 -3.894531 56.875 -1.78125 C 52.25 0.332031 46.800781 1.390625 40.53125 1.390625 Z M 40.53125 -11.390625 C 45.21875 -11.390625 49.179688 -12.492188 52.421875 -14.703125 C 55.660156 -16.921875 58.132812 -20.03125 59.84375 -24.03125 C 61.5625 -28.03125 62.421875 -32.640625 62.421875 -37.859375 C 62.421875 -43.078125 61.5625 -47.648438 59.84375 -51.578125 C 58.132812 -55.503906 55.660156 -58.570312 52.421875 -60.78125 C 49.179688 -63 45.21875 -64.109375 40.53125 -64.109375 C 35.96875 -64.109375 32.050781 -63 28.78125 -60.78125 C 25.507812 -58.570312 23.015625 -55.503906 21.296875 -51.578125 C 19.585938 -47.648438 18.734375 -43.078125 18.734375 -37.859375 C 18.734375 -32.640625 19.585938 -28.03125 21.296875 -24.03125 C 23.015625 -20.03125 25.507812 -16.921875 28.78125 -14.703125 C 32.050781 -12.492188 35.96875 -11.390625 40.53125 -11.390625 Z M 40.53125 -11.390625 "/></g></g></g><g fill="#000000" fill-opacity="1"><g transform="translate(419.642801, 97.933006)"><g><path d="M 53.015625 0 L 6.734375 0 L 6.734375 -75.609375 L 21.015625 -75.609375 L 21.015625 -12.78125 L 53.015625 -12.78125 Z M 53.015625 0 "/></g></g></g><g fill="#000000" fill-opacity="1"><g transform="translate(473.744043, 97.933006)"><g><path d="M 21.015625 0 L 6.734375 0 L 6.734375 -75.609375 L 21.015625 -75.609375 Z M 21.015625 0 "/></g></g></g><g fill="#000000" fill-opacity="1"><g transform="translate(501.488248, 97.933006)"><g><path d="M 40.53125 1.390625 C 34.320312 1.390625 28.90625 0.332031 24.28125 -1.78125 C 19.65625 -3.894531 15.835938 -6.769531 12.828125 -10.40625 C 9.828125 -14.039062 7.582031 -18.21875 6.09375 -22.9375 C 4.601562 -27.664062 3.859375 -32.640625 3.859375 -37.859375 C 3.859375 -43.078125 4.601562 -48.046875 6.09375 -52.765625 C 7.582031 -57.492188 9.828125 -61.671875 12.828125 -65.296875 C 15.835938 -68.929688 19.65625 -71.789062 24.28125 -73.875 C 28.90625 -75.957031 34.320312 -77 40.53125 -77 C 46.800781 -77 52.25 -75.957031 56.875 -73.875 C 61.5 -71.789062 65.3125 -68.929688 68.3125 -65.296875 C 71.320312 -61.671875 73.570312 -57.492188 75.0625 -52.765625 C 76.550781 -48.046875 77.296875 -43.078125 77.296875 -37.859375 C 77.296875 -32.640625 76.550781 -27.664062 75.0625 -22.9375 C 73.570312 -18.21875 71.320312 -14.039062 68.3125 -10.40625 C 65.3125 -6.769531 61.5 -3.894531 56.875 -1.78125 C 52.25 0.332031 46.800781 1.390625 40.53125 1.390625 Z M 40.53125 -11.390625 C 45.21875 -11.390625 49.179688 -12.492188 52.421875 -14.703125 C 55.660156 -16.921875 58.132812 -20.03125 59.84375 -24.03125 C 61.5625 -28.03125 62.421875 -32.640625 62.421875 -37.859375 C 62.421875 -43.078125 61.5625 -47.648438 59.84375 -51.578125 C 58.132812 -55.503906 55.660156 -58.570312 52.421875 -60.78125 C 49.179688 -63 45.21875 -64.109375 40.53125 -64.109375 C 35.96875 -64.109375 32.050781 -63 28.78125 -60.78125 C 25.507812 -58.570312 23.015625 -55.503906 21.296875 -51.578125 C 19.585938 -47.648438 18.734375 -43.078125 18.734375 -37.859375 C 18.734375 -32.640625 19.585938 -28.03125 21.296875 -24.03125 C 23.015625 -20.03125 25.507812 -16.921875 28.78125 -14.703125 C 32.050781 -12.492188 35.96875 -11.390625 40.53125 -11.390625 Z M 40.53125 -11.390625 "/></g></g></g></g></g><g fill="#de4e33" fill-opacity="1"><g transform="translate(294.167824, 291.249124)"><g><path d="M 7.109375 0 L 2.28125 0 L 2.28125 -25.609375 L 10.265625 -25.609375 L 15.578125 -5.84375 L 20.84375 -25.609375 L 28.890625 -25.609375 L 28.890625 0 L 24.0625 0 L 24.0625 -21.984375 L 17.953125 0 L 13.21875 0 L 7.109375 -21.84375 Z M 7.109375 0 "/></g></g></g><g fill="#de4e33" fill-opacity="1"><g transform="translate(325.336149, 291.249124)"><g><path d="M 5.296875 0 L 0.234375 0 L 9.265625 -25.609375 L 14.5625 -25.609375 L 23.59375 0 L 18.53125 0 L 16.78125 -5.265625 L 7.015625 -5.265625 Z M 11.921875 -20.34375 L 8.390625 -9.5 L 15.4375 -9.5 Z M 11.921875 -20.34375 "/></g></g></g><g fill="#de4e33" fill-opacity="1"><g transform="translate(349.156936, 291.249124)"><g><path d="M 17.421875 -11.109375 L 22.015625 0 L 16.875 0 L 12.828125 -10.234375 L 7.109375 -10.234375 L 7.109375 0 L 2.28125 0 L 2.28125 -25.609375 L 13.328125 -25.609375 C 14.929688 -25.609375 16.34375 -25.34375 17.5625 -24.8125 C 18.789062 -24.289062 19.742188 -23.472656 20.421875 -22.359375 C 21.109375 -21.253906 21.453125 -19.820312 21.453125 -18.0625 C 21.453125 -16.382812 21.09375 -14.953125 20.375 -13.765625 C 19.65625 -12.578125 18.671875 -11.691406 17.421875 -11.109375 Z M 12.65625 -21.28125 L 7.109375 -21.28125 L 7.109375 -14.46875 L 12.65625 -14.46875 C 13.945312 -14.46875 14.929688 -14.753906 15.609375 -15.328125 C 16.296875 -15.910156 16.640625 -16.765625 16.640625 -17.890625 C 16.640625 -18.984375 16.289062 -19.820312 15.59375 -20.40625 C 14.90625 -20.988281 13.925781 -21.28125 12.65625 -21.28125 Z M 12.65625 -21.28125 "/></g></g></g><g fill="#de4e33" fill-opacity="1"><g transform="translate(371.669138, 291.249124)"><g><path d="M 14.296875 0 L 9.234375 0 L 9.234375 -10.03125 L -0.09375 -25.609375 L 5.53125 -25.609375 L 11.75 -14.734375 L 17.984375 -25.609375 L 23.59375 -25.609375 L 14.296875 -10.03125 Z M 14.296875 0 "/></g></g></g><g fill="#de4e33" fill-opacity="1"><g transform="translate(392.100741, 291.249124)"><g><path d="M 5.296875 0 L 0.234375 0 L 9.265625 -25.609375 L 14.5625 -25.609375 L 23.59375 0 L 18.53125 0 L 16.78125 -5.265625 L 7.015625 -5.265625 Z M 11.921875 -20.34375 L 8.390625 -9.5 L 15.4375 -9.5 Z M 11.921875 -20.34375 "/></g></g></g><g fill="#de4e33" fill-opacity="1"><g transform="translate(415.921528, 291.249124)"><g><path d="M 7.109375 0 L 2.28125 0 L 2.28125 -25.609375 L 10.265625 -25.609375 L 15.578125 -5.84375 L 20.84375 -25.609375 L 28.890625 -25.609375 L 28.890625 0 L 24.0625 0 L 24.0625 -21.984375 L 17.953125 0 L 13.21875 0 L 7.109375 -21.84375 Z M 7.109375 0 "/></g></g></g><g fill="#de4e33" fill-opacity="1"><g transform="translate(447.089853, 291.249124)"><g/></g></g><g fill="#de4e33" fill-opacity="1"><g transform="translate(456.081356, 291.249124)"><g><path d="M 17.421875 -11.109375 L 22.015625 0 L 16.875 0 L 12.828125 -10.234375 L 7.109375 -10.234375 L 7.109375 0 L 2.28125 0 L 2.28125 -25.609375 L 13.328125 -25.609375 C 14.929688 -25.609375 16.34375 -25.34375 17.5625 -24.8125 C 18.789062 -24.289062 19.742188 -23.472656 20.421875 -22.359375 C 21.109375 -21.253906 21.453125 -19.820312 21.453125 -18.0625 C 21.453125 -16.382812 21.09375 -14.953125 20.375 -13.765625 C 19.65625 -12.578125 18.671875 -11.691406 17.421875 -11.109375 Z M 12.65625 -21.28125 L 7.109375 -21.28125 L 7.109375 -14.46875 L 12.65625 -14.46875 C 13.945312 -14.46875 14.929688 -14.753906 15.609375 -15.328125 C 16.296875 -15.910156 16.640625 -16.765625 16.640625 -17.890625 C 16.640625 -18.984375 16.289062 -19.820312 15.59375 -20.40625 C 14.90625 -20.988281 13.925781 -21.28125 12.65625 -21.28125 Z M 12.65625 -21.28125 "/></g></g></g><g fill="#de4e33" fill-opacity="1"><g transform="translate(479.197579, 291.249124)"><g><path d="M 5.296875 0 L 0.234375 0 L 9.265625 -25.609375 L 14.5625 -25.609375 L 23.59375 0 L 18.53125 0 L 16.78125 -5.265625 L 7.015625 -5.265625 Z M 11.921875 -20.34375 L 8.390625 -9.5 L 15.4375 -9.5 Z M 11.921875 -20.34375 "/></g></g></g><g fill="#de4e33" fill-opacity="1"><g transform="translate(503.018367, 291.249124)"><g><path d="M 7.109375 0 L 2.28125 0 L 2.28125 -25.609375 L 19.359375 -25.609375 L 19.359375 -21.28125 L 7.109375 -21.28125 L 7.109375 -14.96875 L 18.09375 -14.96875 L 18.09375 -10.671875 L 7.109375 -10.671875 Z M 7.109375 0 "/></g></g></g><g fill="#de4e33" fill-opacity="1"><g transform="translate(523.28281, 291.249124)"><g><path d="M 7.109375 0 L 2.28125 0 L 2.28125 -25.609375 L 7.109375 -25.609375 Z M 7.109375 0 "/></g></g></g><g fill="#de4e33" fill-opacity="1"><g transform="translate(532.676937, 291.249124)"><g><path d="M 26.171875 -12.828125 C 26.171875 -10.828125 25.851562 -8.929688 25.21875 -7.140625 C 24.582031 -5.359375 23.601562 -3.851562 22.28125 -2.625 L 25.78125 2.921875 L 20.375 2.921875 L 18.359375 -0.265625 C 17.660156 -0.046875 16.929688 0.128906 16.171875 0.265625 C 15.410156 0.398438 14.597656 0.46875 13.734375 0.46875 C 11.628906 0.46875 9.789062 0.113281 8.21875 -0.59375 C 6.65625 -1.3125 5.363281 -2.285156 4.34375 -3.515625 C 3.320312 -4.753906 2.5625 -6.171875 2.0625 -7.765625 C 1.5625 -9.367188 1.3125 -11.054688 1.3125 -12.828125 C 1.3125 -14.585938 1.5625 -16.265625 2.0625 -17.859375 C 2.5625 -19.460938 3.320312 -20.878906 4.34375 -22.109375 C 5.363281 -23.347656 6.65625 -24.316406 8.21875 -25.015625 C 9.789062 -25.722656 11.628906 -26.078125 13.734375 -26.078125 C 15.859375 -26.078125 17.703125 -25.722656 19.265625 -25.015625 C 20.828125 -24.316406 22.117188 -23.347656 23.140625 -22.109375 C 24.160156 -20.878906 24.921875 -19.460938 25.421875 -17.859375 C 25.921875 -16.265625 26.171875 -14.585938 26.171875 -12.828125 Z M 6.34375 -12.828125 C 6.34375 -11.054688 6.632812 -9.492188 7.21875 -8.140625 C 7.800781 -6.785156 8.644531 -5.734375 9.75 -4.984375 C 10.851562 -4.234375 12.179688 -3.859375 13.734375 -3.859375 C 15.316406 -3.859375 16.65625 -4.234375 17.75 -4.984375 C 18.851562 -5.734375 19.691406 -6.785156 20.265625 -8.140625 C 20.847656 -9.492188 21.140625 -11.054688 21.140625 -12.828125 C 21.140625 -14.585938 20.847656 -16.132812 20.265625 -17.46875 C 19.691406 -18.800781 18.851562 -19.84375 17.75 -20.59375 C 16.65625 -21.34375 15.316406 -21.71875 13.734375 -21.71875 C 12.179688 -21.71875 10.851562 -21.34375 9.75 -20.59375 C 8.644531 -19.84375 7.800781 -18.800781 7.21875 -17.46875 C 6.632812 -16.132812 6.34375 -14.585938 6.34375 -12.828125 Z M 6.34375 -12.828125 "/></g></g></g><g fill="#de4e33" fill-opacity="1"><g transform="translate(560.255341, 291.249124)"><g><path d="M 12.34375 0.46875 C 9.90625 0.46875 7.925781 0.0625 6.40625 -0.75 C 4.882812 -1.570312 3.769531 -2.71875 3.0625 -4.1875 C 2.363281 -5.664062 2.015625 -7.367188 2.015625 -9.296875 L 2.015625 -25.609375 L 6.875 -25.609375 L 6.875 -9.296875 C 6.875 -8.242188 7.039062 -7.300781 7.375 -6.46875 C 7.71875 -5.644531 8.289062 -5.003906 9.09375 -4.546875 C 9.894531 -4.085938 10.976562 -3.859375 12.34375 -3.859375 C 13.738281 -3.859375 14.832031 -4.085938 15.625 -4.546875 C 16.414062 -5.003906 16.976562 -5.644531 17.3125 -6.46875 C 17.65625 -7.300781 17.828125 -8.242188 17.828125 -9.296875 L 17.828125 -25.609375 L 22.6875 -25.609375 L 22.6875 -9.296875 C 22.6875 -7.367188 22.332031 -5.664062 21.625 -4.1875 C 20.925781 -2.71875 19.816406 -1.570312 18.296875 -0.75 C 16.773438 0.0625 14.789062 0.46875 12.34375 0.46875 Z M 12.34375 0.46875 "/></g></g></g><g fill="#de4e33" fill-opacity="1"><g transform="translate(584.982012, 291.249124)"><g><path d="M 19.359375 0 L 2.28125 0 L 2.28125 -25.609375 L 19.359375 -25.609375 L 19.359375 -21.28125 L 7.109375 -21.28125 L 7.109375 -14.96875 L 18.09375 -14.96875 L 18.09375 -10.671875 L 7.109375 -10.671875 L 7.109375 -4.328125 L 19.359375 -4.328125 Z M 19.359375 0 "/></g></g></g><g clip-path="url(#418f0a3c5d)"><g transform="matrix(1, 0, 0, 1, 0.000000000000000111, 155)"><g clip-path="url(#869f7d77b7)"><g clip-path="url(#4e3f1b5586)"><path stroke-linecap="butt" transform="matrix(0.632782, 0.202037, -0.202037, 0.632782, 113.130911, 119.507533)" fill="none" stroke-linejoin="miter" d="M 0.00186906 26.001093 L 179.318117 25.997954 L 179.318557 199.8148 " stroke="#ff751f" stroke-width="52" stroke-opacity="1" stroke-miterlimit="4"/><path stroke-linecap="butt" transform="matrix(-0.66416, 0.0110951, -0.0110951, -0.66416, 215.680914, 247.656603)" fill="none" stroke-linejoin="miter" d="M 15.569691 104.239416 C 158.327516 0.586946 271.569676 0.584871 355.284311 104.238872 " stroke="#ff751f" stroke-width="53" stroke-opacity="1" stroke-miterlimit="4"/></g></g></g></g><g clip-path="url(#fc59e04231)"><g transform="matrix(1, 0, 0, 1, 578, 0)"><g clip-path="url(#04f38cbe75)"><g clip-path="url(#6ece4e9c99)"><path stroke-linecap="butt" transform="matrix(-0.621482, -0.19238, 0.19238, -0.621482, 215.585553, 170.016244)" fill="none" stroke-linejoin="miter" d="M 0.00144125 25.996858 L 179.318364 26.001651 L 179.318353 199.811106 " stroke="#ff751f" stroke-width="52" stroke-opacity="1" stroke-miterlimit="4"/><path stroke-linecap="butt" transform="matrix(0.650365, -0.0166281, 0.0166281, 0.650365, 114.039073, 45.40013)" fill="none" stroke-linejoin="miter" d="M 15.569874 104.237457 C 158.327659 0.585813 271.569406 0.58609 355.283111 104.237981 " stroke="#ff751f" stroke-width="53" stroke-opacity="1" stroke-miterlimit="4"/></g></g></g></g></svg>